<?xml version="1.0" encoding="UTF-8"?>
<svg id="_レイヤー_1" data-name="レイヤー_1" xmlns="http://www.w3.org/2000/svg" version="1.1" viewBox="0 0 61.85 62.06">
  <!-- Generator: Adobe Illustrator 30.7.0, SVG Export Plug-In . SVG Version: 2.1.4 Build 11)  -->
  <defs>
    <style>
      .st0 {
        fill: #0934b2;
      }
    </style>
  </defs>
  <path class="st0" d="M36.75,13.75c.08.1.05.4.14.54.04.07.85.6.69.74l-.58-.08c-.05.53-.33,1.07-.7,1.46.05-.29-.27-.4-.29-.46-.04-.16.05-.68,0-.76-.64.5-.21,1.4.17,1.95l-.78-.23-.33.32-.33-.32c-.38.72-1.11.34-1.52-.16-.36.92-.46,1.94-.5,2.92l-.87-.25c-.19.13-.12.37-.11.56.53-.01.93.37,1.41.51.48.14.98.14,1.47.26,1.7.41,2.53,1.18,3.92,2.06.36.22,1.44.62,1.55.98.11.36-.09,1.17-.12,1.59-.02.34.02.67,0,1.01-.27,0-.76.02-.98-.12-.21-.13-1-1.28-1.28-1.58-1.37-1.47-4.2-3.57-6.26-3.74-1.18-.09-2.18.3-3.3.4-.42.04-.8.05-1.15-.23-.1-.08-.67-.93-.78-.82.32.84.66,1.46.04,2.28-.79-1.22-1.5-2.59-2.75-3.41-.03.15.08.19.17.29.71.84,2.6,2.47,1.97,3.73-.09.18-.89,1.15-1.06,1.31-.33.31-.83.47-1.15.74-.09.08-.21.12-.18.28,1.31-.1,2.01-1.06,2.79-1.95.05.68.29.9-.17,1.5l-.98.93c.62.09.94-.73,1.56-.73.41,2.28,1.02,3.68,3.05,4.9.36.21,1.25.78,1.64.66.46-.13,1.37-2.09,1.94-2.39.29-.08,2.22.52,2.52.74.1.07.21.12.22.28-.01.61-.57.39-1,.55-.39.14-.61.51-.74.89-.14.4-.14,1.08-.27,1.36-.18.41-1.83.73-2.31.89-.4.14-2.4.86-2.56,1.05-.13.16-.08.33-.13.4-.21.31-2.21-.3-2.53-.51-.13-.09-.05-.08,0-.16.1-.15.33-.29.44-.45.87-1.24-.02-2-.44-3.12-.37-.95-.89-2.34-.17-3.21-.84.08-1.87.41-2.67.07-.17-.07-.84-.48-.95-.6-.31-.31-.56-1.45-.57-1.88,0-.65.46-1.25.3-1.92-.1-.43-.94-.83-.89-.66.5.64.52,1.66.21,2.4-.07.17-.27.29-.29.45-.04.29.22.51.25.81.03.26-.09,1.07-.27,1.24-.22.2-1.27,0-1.46-.18-.21-.2,0-.57,0-.81-.02-.88-.82-2.18-1.31-2.85-.44-.6.29-1.91-.5-2.68-.36-.35-.94-.35-.82-1.1.3.01.56.15.86.16,1.12.04,1.17-.82,1.96-1.24,1.38-.75,3.37-.38,4.67.38.11.07.51.43.57.37l-1.4-2.89v-.17l.78-.49c.98,1,1.68,2.75,2.79,3.56.13.09,1.33.76,1.44.78.26.06.68-.12.98-.05l-.07-.53-.82-.12c-.03-1.31.31-3.06,1.63-3.69.76-.36,1-.14,1.73.04-.12-.25-.13-1.03.04-1.22.12-.14.37-.02.5-.16.17-.18.04-.76.37-.93.09-.05.24-.02.31-.06.05-.03.19-.43.31-.54.35-.31.39-.01.63.09.51.22.93-.1,1.21.02.18.08.33.48.5.65.18.18.52.33.56.39h.04Z"/>
  <path class="st0" d="M51.25,53.04l-3.09,4.1,1.86,4.91h-1.81c-.41-.94-.69-2.14-1.15-3.05-.05-.09-.06-.21-.21-.19l-2.47,3.25h-4.64l5.76-7.56h-3.87l.25-1.46h9.38-.01Z"/>
  <path class="st0" d="M20.89,57.59l.25-1.46h3.79l.25-1.3-3.7.23.38-1.62,10.23-.56-.38,1.55-2.41.15-.33,1.54h2.46l-.33,1.45-2.78.03-2.84,4.44h-4.08l2.79-4.46h-3.29Z"/>
  <path class="st0" d="M56.59,53.04l-.74,3.66,5.8.25c.09,0,.17.04.2.13.05.14-.28,1.55-.37,1.57l-6.03-.33-.83,3.74h-3.7l2.1-9.02h3.58Z"/>
  <path class="st0" d="M32,43.61c.17-.45.4-.99.83-1.26,1.09-.69,1.83.32,2.12-1.56.43-2.81-.36-2.82-2.32-4.19-1.04-.74-1.86-1.16-1.48-2.65.82-.73,2.96-.52,3.38-1.62.18-.46.03-1.45.46-1.79.21-.16.51-.06.73-.12.69-.18,1.11-.65,1.64.12,1.26,1.84-.3,4.02-1.37,5.51-.99,1.37.82,1.22.94,2.16-.12.74-.33,1.45-.41,2.19-.04.37.09,1.22-.1,1.48-.07.09-.62.35-.79.48-.48.37-.69.73-.95,1.26h-2.69Z"/>
  <path class="st0" d="M25.23,28.12c.18.58.16,1.17.31,1.77.27,1,1.34,2.27.64,3.24-.76.26-2.42-1.28-2.89-1.84-1.16.27-2.24.13-3.39-.09.3.67.21,1.56.43,2.22.12.36.47.75.55,1.16.77-.09,1.38-1.17,2.05-.23.11.16.34.69.34.89-.02.33-.51.28-.76.38-.69.3-.58.7-1.57.62-2.02-.18-1.52-3.03-2.34-4.43-.27-.47-1.12-1.12-.24-1.58.66-.35,1.29,0,1.87-.18.05-.02.81-.54.92-.63.46-.33.91-.96,1.16-1.45.09-.18.08-.66.26-.72.46-.06.79.43,1.14.57.49.19,1.06.06,1.51.34v-.02Z"/>
  <path class="st0" d="M30.66,21.38c1.55-.16,1.46.19,1.72,1.5.22,1.06.64,3.25.5,4.26-.09.65-1.36,2.7-2,2.74-.57.03-2.12-.98-2.5-1.42-.74-.85-1.58-4.2-1.64-5.36-.03-.48-.07-.76.41-.98.53-.25,2.87-.68,3.52-.75h0ZM30.11,24.52c.23-.04,1.17-.12,1.23-.3.04-.11-.23-1.15-.31-1.31-.37-.7-1.28-.55-1.9-.31-.62.25-.86.55-.82,1.21.04.55.71,3.61.93,4.03.35.67,1.44.58,2.04.3,1.22-.56.49-1.51.39-2.49l-1.2.23.3,1.5-.29-.04-.86-3.86c0-.16.18-.28.29-.11l.21,1.14h-.01Z"/>
  <path class="st0" d="M39.31,56.21l-.3.88h-1.84l-.83,3.99h1.98l-.17.89h-6.41c0-.19.02-.82.22-.88l1.97-.09.86-3.9h-1.81l.17-.89h6.18Z"/>
  <path class="st0" d="M43.68,36.79c.06.86-.84,1.3-1.54,1.52-.7.22-1.27.28-1.89-.2-1.16-.91-.32-2.46-.94-3.22-.38-.48-1.29-.07-1.44-.54-.09-.29.17-1.26.5-1.39,1.31-.55,3.09.07,3.91,1.18.52.7.36,1.77.69,2.56l.7.08h.01Z"/>
  <path class="st0" d="M33.16,24.04c1.09-.02,1-.51,1.18-1.39.51.29,1.04.51,1.52.86.42.31,1.93,1.58,1.95,2.03.03.57-.69.84-.84,1.16-.1.22-.01.52-.05.77-.08.55-.67,1.4-1.31,1.23-.32-.09-1.85-.65-2.05-.82-.06-.05-.12-.1-.16-.16l-.25-3.68Z"/>
  <path class="st0" d="M30.84,43.61h-2.39c.09-.63.29-1.87,1.04-2.01.22-.04.44.02.64-.02.42-.08,1.78-1.91,1.95-2.38.37-1.04-.61-1.18-1.24-1.64-.34-.25-1.19-1.39-1.32-1.78-.2-.59-.07-1.72.7-1.81.46.27.4.79.58,1.18.23.54.63,1.22,1.07,1.62.46.43,1.19.69,1.6,1.09,1.04,1-.86,2.71-.94,3.79-1,.15-1.85.87-1.7,1.94h0Z"/>
  <path class="st0" d="M14.81,55.06h-1.15l.08,3.98h.33c.13.45-.33.38-.33.41v1.62l-1.23.08v-1.3l-2.63.74-.25-.97.66-.08c-.14-.7-.05-1.43-.08-2.16-.02-.57-.01-1.43-.07-1.95-.06-.47-.3-.17-.41-.23l-.08-.29c.39-.02.8.02,1.2,0,1.1-.06,2.63-.21,3.7-.09.16.02.31.04.28.25h-.02ZM12.42,55.14h-.99c.04.22-.09.9.08,1.02l.91-.04v-.98ZM12.42,56.45c-.32.04-.74-.11-.98.12v1.17h.98v-1.3ZM11.52,59.37l.95-.15c.04-.22.1-1.08-.04-1.18l-.99.05.08,1.3h0Z"/>
  <path class="st0" d="M2.55,59.78c-.05.19.04.13.1.18.18.15.44.25.56.46-.98.15-1.93.5-2.92.65-.08.01-.26.13-.29-.05-.03-.15.16-.18.25-.25.25-.17,1.5-.77,1.56-.9.03-.18-.08-.11-.21-.12-.26-.02-.53.01-.79,0l-.08-2.92,6.41-.08-.17,3h-1.64c.02.13.35.12.47.14.63.11,1.27.21,1.91.26l-.78.95c-.13.01-2.23-1.08-2.3-1.2-.02-.04.01-.12.04-.16h-2.14v.03ZM5.75,57.67c0-.21.08-.54-.21-.57l-3.5.08v.57l3.7-.08ZM2.05,58.56h3.58l.12-.57-3.7.08v.49ZM5.67,59.45c.18-.99-.22-.58-.86-.56-.92.02-1.84-.02-2.76,0v.57h3.62Z"/>
  <path class="st0" d="M23.2,12.42l-.86.41c-.06-.01-.35-.54-.41-.64-1.83-3.15-3.09-6.96-4.82-10.18-.19-.65-.33-1.33-.31-2,.4.43.82,1.03,1.12,1.54,1.94,3.35,3.3,7.27,5.25,10.64l.04.23h-.01Z"/>
  <path class="st0" d="M21.8,28.02c-.02.62-.34.52-.65.78-.26.2-.44.48-.72.66l-5.5.27c-.37-.03-.85-.21-1.19-.37-.16-.07-.3-.25-.38-.28-.35-.09-.6.46-1.3-.17-.88-.79-.76-1.52.56-1.45.81.04,1.2.73,1.9.97,1.33.47,2.15-.15,3.33-.21.44-.02.92.12,1.38.12.37,0,2.49-.42,2.59-.33h0Z"/>
  <path class="st0" d="M7.57,54.58l-.17,1.79-7.08.08-.08-1.79,7.32-.08ZM2.22,54.91l-.7.07.04,1.14h.74l-.08-1.22ZM4.19,54.9h-.74c.08.27-.23,1.02,0,1.18l.71-.04.04-1.14h-.01ZM6.25,54.9h-.83l-.08,1.13h.81c.17-.37.07-.77.09-1.13h.01Z"/>
  <path class="st0" d="M17.14,55.55c.08.02.33.32.29.44l-.91,3.41,1.15.82-.86.93-.84-.88-1.22.88-.28-.3.8-1.44-.97-1.13.27-.2c.13.11.84.67.96.56l.5-2.76h-1.73v-.33h2.84Z"/>
  <path class="st0" d="M8.81,36.79s.51-.22.69,0c.12.14.1.46.16.55,0,.02.1.03.13.08.14.28.94,1.68.91,1.84l-2.72,1.43-.99-1.9.5-.26.66,1.27.57-.25-.49-1.09.46-.29.54.94c.16.09.7-.12.63-.38-.07-.26-.61-.88-.63-1.17l.33-.29-3.07.16-.29-.76,2.53-2,.22.69-.47.49.34.93h-.01ZM8.23,36.79c-.22-.83-.46-.53-.96-.1-.06.05-.16,0-.1.18l1.07-.08Z"/>
  <path class="st0" d="M38.74,45.48l.95.08,1.02,2.11v-2.2h.66v3.49h-.81l-1-2.28-.17.04c0,.07.08.14.08.16v2.07h-.74v-3.49Z"/>
  <path class="st0" d="M31.65,45.42c2.22-.37,2.35,3.39.47,3.63-2.15.27-2.21-3.34-.47-3.63ZM31.73,46.06c-.64.19-.73,2.46.31,2.34.77-.1.79-2.67-.31-2.34Z"/>
  <path class="st0" d="M15.62,45.48v1.38c.34-.05.81.12,1.07-.12v-1.26h.74v3.49h-.74v-1.34c-.26-.25-.72-.07-1.07-.12v1.46h-.83v-3.49h.83Z"/>
  <path class="st0" d="M9.63,18.18c.27.15.4-.62.9-.11,0,.42-.6.68-.65.82-.06.18.01.47-.03.7-.26,1.32-2.2,1.33-1.96-.18-1.83.53-1.04-2.41.25-1.58.07.05.16.13.21.2.29.48-.17.73.7.4l-.33-.6.29-.45c.23.06.58.78.63.8h-.01ZM7.97,18.75c.1-.4-.19-.67-.55-.46l-.09.46h.64ZM9.38,19.01l-.98.26c-.08.54.36.69.8.46l.19-.7h0Z"/>
  <path class="st0" d="M51.25,22.9c.05.63-.68.99-1.19.65-.51-.34-.65-1.54-.86-2.11l2.97-.78c.25.65,1.04,2.47-.22,2.54-.32.02-.42-.27-.68-.3h-.02ZM51.9,21.44l-.73.16c.14.49.3,1.34.89.67l-.16-.84ZM50.67,21.77l-.73.16c.07.5.27,1.35.89.84l-.16-1Z"/>
  <path class="st0" d="M21.73,14.2l-.16-.44,2.78-1.5c.19.38-.08.66-.08.93,0,.23.22.45.24.66.01.17-.08.35-.07.54.03.53.35.46-.17.89-.16.13-.38.2-.53.37-.23-.54-.85-.61-1.19-.94-.3-.29-.22-.63-.82-.53v.02Z"/>
  <path class="st0" d="M47.38,17.78l-.33-.68c.2-.56,1.02-.96.37-1.51l-1.07.65-.29-.52,2.5-1.76c.38.63,1.58,1.77.79,2.48-.46.41-1.01.07-1.16.15l-.82,1.18ZM47.88,15.27c.23.49.71,1.15,1.12.41.03-.15-.38-.82-.5-.82l-.62.41Z"/>
  <path class="st0" d="M8.21,32.88c-.42.31-1.28.5-.96,1.14l1.22-.23.17.74-3.04.64c-.1-.74-.83-2.25.24-2.56.66-.19.87.34,1.1.28l1.13-.81.16.8h0ZM5.92,34.35l.82-.21c-.04-.38-.17-.98-.67-.83-.42.2-.14.69-.13,1.04h-.01Z"/>
  <path class="st0" d="M26.53,6.14s-.12.03-.13.08c-.03.31.61,1.01.74,1.33-.21-.04-.43.08-.62.08-.56,0-.54-1.54-1.36-1.01l.17,1.17-.74.08-.4-3c.8-.04,2.42-.73,2.54.52.04.39-.02.45-.21.74h.01ZM24.92,5.28c.11.19,0,.74.22.81,1.41-.05,1.09-1.21-.22-.81Z"/>
  <path class="st0" d="M17.33,7.49c1.13-.18,1.93,1,1.71,2.01-.16.73-1.01.99-1.57,1.36l-1.59-2.62c0-.1,1.24-.71,1.45-.76h.01ZM16.78,8.28l.9,1.66c1.23,0,.67-1.78-.24-1.87-.24-.02-.43.18-.67.2h.01Z"/>
  <path class="st0" d="M30.28,7.46l.33-2.98c1.47,0,2.52.29,2.29,1.97-.18,1.28-1.61,1.3-2.62,1.01ZM31.88,6.87c.38-.34.49-1.31.02-1.63-.2-.14-.67-.32-.73,0-.04.23-.21,1.55-.16,1.7.02.06.05.1.12.12.2.06.59-.04.74-.17h0Z"/>
  <path class="st0" d="M11.1,13.56c.05.1-.22.62-.25.64-.02.02-.29-.18-.5-.12-1.25.34.6,2.18,1.29,1.49.25-.25.13-.51.02-.79-.25-.06-.34.38-.46.41l-.44-.29.79-1.01,1.27,1.01c-.16.21-.26.2-.5.12.01,1.79-1.98,1.69-2.78.43-.72-1.12.29-2.36,1.55-1.89h0Z"/>
  <path class="st0" d="M20.24,45.48v.65h-1.16v.73h1.16v.65h-1.16v.81h1.24v.65h-1.98v-3.49h1.89Z"/>
  <path class="st0" d="M11.09,39.72l.34.56-1.07.69.5.77,1.11-.65c.12-.02.39.4.36.52l-2.54,1.76-.32-.53.97-.73-.5-.77-1.11.64-.37-.53,2.39-1.71.24-.03Z"/>
  <path class="st0" d="M52.15,36.46l-.25.64-1.15-.37-.4.82,1.15.45-.3.64-2.82-1.18c.21-.98.84-.18,1.47-.11l.33-.85-1.12-.53.18-.57,2.91,1.06h.01Z"/>
  <path class="st0" d="M12.4,11.14c1.21-.16,2.65,1.58,1.58,2.62-1.07,1.04-2.82-.37-2.63-1.62.07-.44.6-.95,1.04-1ZM12.31,11.79c-.93.27.43,2.08,1.22,1.61.68-.41-.6-1.79-1.22-1.61Z"/>
  <path class="st0" d="M48.26,38.35c1.07-.21,2.52.79,2.14,1.95-.59,1.77-3.66.45-2.96-1.22.13-.32.47-.66.82-.74ZM48.34,39c-1.29.26.74,2,1.38,1.37.59-.6-.83-1.47-1.38-1.37Z"/>
  <path class="st0" d="M14.79,9.11c1.23-.14,2.63,1.98,1.25,2.86-1.38.88-3.32-1.66-1.83-2.62.12-.08.44-.22.58-.25h0ZM14.7,9.75c-.97.19.22,2.08,1,1.73.72-.32-.33-1.87-1-1.73Z"/>
  <path class="st0" d="M22.95,45.48l-.08.73c-.28-.19-1.19-.31-1.15.2.04.55,1.53.42,1.4,1.71-.1.99-1.49,1.08-2.22.77l.08-.64c.06-.06,1.23.46,1.32-.12.1-.66-1.44-.66-1.4-1.7.04-.97,1.28-1.18,2.05-.94Z"/>
  <path class="st0" d="M46.68,11.78l1.44,1.65c-.51.79-.91-.39-1.37-.67-.07-.01-.39.2-.44.28-.11.13-.06.05,0,.16.1.17.67.7.65.81l-.36.38c-.49-.34-.65-1.27-1.24-.48v.16l.86.95-.43.43-1.45-1.58,2.34-2.07h.01Z"/>
  <path class="st0" d="M42.36,9.01l-.33.53.98.61-.25.48-1.02-.57c-.13-.02-.35.42-.35.46-.03.23.97.67,1.14.89-.05.13-.21.45-.37.45-.1,0-1.45-.97-1.67-1.12-.06-.04-.14.02-.1-.14l1.73-2.48c.35.34,1.48.85,1.74,1.17.12.15-.03.43-.17.5-.17.08-1.21-.85-1.31-.78h-.01Z"/>
  <path class="st0" d="M36.02,5.36l-.17.56-1.47-.32-.08.63,1.02.25-.04.58-1.15-.33-.17.73,1.31.29.08.16-.08.45-2.14-.49.66-3,2.21.49Z"/>
  <path class="st0" d="M51.16,26.47c0,.18.13.42.09.59-.02.08-.21.09-.29.22-.31.5.19,1.17.49.81.32-.39.01-1.45.9-1.54,1.37-.14,1.58,1.83.46,2.2-.28-.57-.06-.48.1-.84.25-.55-.29-1.02-.54-.45-.25.57-.09,1.56-1.17,1.44-1.16-.13-1.23-2.36-.05-2.43h.01Z"/>
  <path class="st0" d="M53.05,23.8l.33,2.1-.57.08-.25-1.46-.65.21.16,1.08h-.54s-.12-1.05-.12-1.05l-.73.08.25,1.46-.66.08-.25-2.2,3.04-.4Z"/>
  <path class="st0" d="M50.75,32.81v.6c-.55,0-.87,1.16-.29,1.11.5-.05.44-1.18,1.31-1.23,1.48-.08,1.21,2.11-.04,2.28.02-.18-.04-.43,0-.59.02-.07.74-.41.46-.87-.66-.48-.68.92-1.27,1.1-1.76.55-1.75-2.38-.17-2.4h0Z"/>
  <path class="st0" d="M4.77,26.64l.08-.82c.63.04,1.66.36,2.26.25.44-.08.54-.88.06-1.03-.33-.11-2.07-.18-2.15-.27v-.56c1.2.25,3.24-.23,3.02,1.56-.22,1.8-2.07.8-3.27.88h0Z"/>
  <path class="st0" d="M14.23,45.48l-.17.64c-2.04-.6-2,2.79,0,2.2l.08.64c-3.32.85-3.18-4.35.08-3.49h0Z"/>
  <path class="st0" d="M44.49,45.49l-.07.64c-2.02-.64-2.02,2.83,0,2.2l.08.65c-1.7.35-2.58-.46-2.39-2.16.12-1.12,1.36-1.66,2.38-1.33h0Z"/>
  <path class="st0" d="M30.02,7.47h-.82l-.17-.61c-.64-.07-1.19-.22-1.16.6l-.65.09c.13-.38.8-2.97.92-3.07.08-.06.74-.16.85-.02l1.02,3h0ZM28.21,6.33c.23-.01.51.08.65-.12l-.33-.94c-.11-.02-.09.08-.12.16-.05.13-.26.84-.21.89h.01Z"/>
  <path class="st0" d="M29.93,45.49l-.07.64c-2.03-.65-2.05,2.83,0,2.2l.08.65c-3.3.88-3.22-4.3,0-3.48h-.01Z"/>
  <path class="st0" d="M49.1,42.16c.04.08,0,.15-.03.23-.06.13-.79,1.02-.91,1.12-.85.67-1.91-.15-1.5-1.15.07-.18.51-.62.49-.74-.56-.49-1.16-.51-.46-1.27l2.42,1.8h-.01ZM48.28,42.4l-.73-.41c-.85,1.07.27,1.62.73.41Z"/>
  <path class="st0" d="M25.99,45.48v.65h-.82v2.84h-.83v-2.84h-.82v-.65h2.46Z"/>
  <path class="st0" d="M43.93,12.1l1.86-1.13.43.36-2.61,1.65-.66-.45.02-.11,1.4-2.76.44.51-.89,1.93Z"/>
  <path class="st0" d="M5.26,27.21v1.46h.74v-1.13h.58v1.13h1.23v.73h-3.12v-2.19h.57Z"/>
  <path class="st0" d="M49.84,18.19h1.27l.29.49h-2.1c-.09,0-.89.51-1.08.56l-.37-.64c.32-.13.9-.33,1.15-.53.43-.36.76-1.26,1.2-1.65l.33.74-.7,1.05h.01Z"/>
  <path class="st0" d="M5.34,30.7l2.56-.25.08.73-2.46.26v.81h-.59l-.24-2.2.58-.05.07.7Z"/>
  <path class="st0" d="M23.61,5.04l.08.57-.61.15c-.23.15.56,2.01.54,2.39l-.66.21-.66-2.35-.68.15-.21-.55,2.21-.57h-.01Z"/>
  <path class="st0" d="M53.46,29.32l-.17,2.19h-.57l.06-.62-.12-.17-2.41-.17.08-.74,2.42.23c.23-.06.1-.61.13-.81l.57.08h0Z"/>
  <path class="st0" d="M8.71,22.17l-.41,1.86-3.04-.64.17-.74,2.46.57.26-1.13.57.08Z"/>
  <path class="st0" d="M37.93,45.48h-.83v3.49h.83v-3.49Z"/>
  <path class="st0" d="M39.31,6.58l-.25.64.66.08-.04.41-.7-.08c-.08.09.56.88-.33.74l-.08-.65c-.39.25-.62.58-.82-.03l.57-.33-.46-.45.32-.23.47.4.17-.57.5.08Z"/>
  <path class="st0" d="M33.71,22.18l-.02,1.21-.69.15-.33-1.61c.41-.07.7.1,1.06.26h-.01Z"/>
  <path class="st0" d="M36.44,48.16c-.25.55-.35,1.64-1.15,1.46l.36-1.38.79-.08Z"/>
  <path class="st0" d="M34.36,48.1c.87-.18.7,1.31-.12.9-.36-.17-.31-.81.12-.9Z"/>
</svg>