<svg width="64" height="64" viewBox="0 0 64 64" fill="none" xmlns="http://www.w3.org/2000/svg">
<path d="M37.9014 14.3198C37.9842 14.422 37.9532 14.7182 38.0463 14.8612C38.0876 14.9327 38.8945 15.4638 38.7393 15.5966L38.16 15.5148C38.1083 16.046 37.829 16.5873 37.4566 16.9754C37.5084 16.6894 37.1877 16.5771 37.167 16.5158C37.1256 16.3524 37.2187 15.8315 37.167 15.76C36.5257 16.2605 36.9601 17.1593 37.3325 17.7108L36.5567 17.4759L36.2257 17.7925L35.8947 17.4759C35.5119 18.1909 34.7878 17.813 34.374 17.3125C34.012 18.2317 33.9189 19.2531 33.8775 20.2336L33.0086 19.9885C32.8224 20.1213 32.8845 20.3562 32.8948 20.5503C33.4224 20.5401 33.8258 20.918 34.3016 21.061C34.7775 21.204 35.2843 21.204 35.7705 21.3163C37.467 21.7249 38.3049 22.5011 39.691 23.3795C40.053 23.6042 41.1288 24.0026 41.2426 24.36C41.3564 24.7175 41.1495 25.5346 41.1185 25.9534C41.0978 26.2905 41.1392 26.6275 41.1185 26.9646C40.8496 26.9646 40.3634 26.985 40.1358 26.842C39.9289 26.7092 39.1324 25.5653 38.8531 25.2589C37.4877 23.7881 34.6533 21.684 32.5948 21.5206C31.4156 21.4287 30.4122 21.8168 29.295 21.9189C28.8709 21.9598 28.4985 21.97 28.1468 21.684C28.0433 21.6023 27.4744 20.7545 27.371 20.8669C27.6916 21.7044 28.033 22.3275 27.4123 23.1446C26.6262 21.9291 25.9124 20.5503 24.6608 19.7332C24.6297 19.8864 24.7435 19.9272 24.8263 20.0192C25.54 20.8567 27.4227 22.4909 26.7917 23.7472C26.6986 23.9311 25.9021 24.9014 25.7366 25.0546C25.4056 25.361 24.909 25.5244 24.5884 25.79C24.4953 25.8717 24.3815 25.9125 24.4125 26.0658C25.7262 25.9636 26.4193 25.0035 27.2055 24.1149C27.2572 24.7992 27.4951 25.0137 27.04 25.6163L26.0573 26.5458C26.6779 26.6377 26.9986 25.8206 27.6192 25.8206C28.033 28.0983 28.6433 29.4976 30.6708 30.7233C31.0328 30.9378 31.9225 31.4995 32.3155 31.3872C32.7707 31.2544 33.681 29.2933 34.2603 28.9971C34.5499 28.9154 36.4843 29.518 36.7843 29.7325C36.8877 29.804 36.9911 29.8551 37.0015 30.0083C36.9911 30.6211 36.4326 30.3964 35.9981 30.5598C35.605 30.7028 35.3878 31.0705 35.2533 31.4485C35.1085 31.8468 35.1085 32.5311 34.9844 32.8069C34.8085 33.2154 33.1534 33.5321 32.6776 33.6955C32.2742 33.8385 30.2777 34.5535 30.1225 34.7475C29.9881 34.9109 30.0398 35.0744 29.9881 35.1459C29.7812 35.4523 27.7744 34.8497 27.4537 34.6352C27.3193 34.5432 27.402 34.5535 27.4537 34.4717C27.5572 34.3185 27.7847 34.1858 27.8985 34.0223C28.7674 32.7865 27.8778 32.0204 27.4537 30.9071C27.0813 29.9572 26.5641 28.5681 27.2882 27.7C26.4503 27.7817 25.4159 28.1085 24.6194 27.7715C24.4539 27.7 23.7815 27.2914 23.6677 27.1688C23.3574 26.8624 23.1091 25.7185 23.0988 25.2895C23.0988 24.6358 23.5539 24.0434 23.3988 23.3693C23.2953 22.9403 22.4574 22.542 22.5092 22.7054C23.0057 23.3489 23.0264 24.3703 22.7161 25.1056C22.6436 25.2793 22.4471 25.3916 22.4264 25.5551C22.385 25.841 22.6436 26.0657 22.6747 26.362C22.7057 26.6173 22.5816 27.4344 22.4057 27.5978C22.1885 27.8021 21.1334 27.5978 20.9472 27.414C20.7403 27.2097 20.9472 26.842 20.9472 26.6071C20.9265 25.7287 20.13 24.4315 19.6335 23.7574C19.1887 23.1548 19.9231 21.8474 19.1369 21.0814C18.7749 20.7341 18.1956 20.7341 18.3197 19.9783C18.6197 19.9885 18.8783 20.1315 19.1783 20.1417C20.2955 20.1826 20.3472 19.3246 21.1334 18.9058C22.5092 18.1602 24.5056 18.5279 25.7986 19.2838C25.9124 19.3552 26.3055 19.7127 26.3676 19.6515L24.9711 16.7609V16.5873L25.7469 16.097C26.7296 17.098 27.4227 18.8446 28.5399 19.6617C28.6744 19.7536 29.8743 20.4175 29.9777 20.4379C30.2363 20.4992 30.6605 20.3154 30.9604 20.3868L30.888 19.8557L30.0708 19.7332C30.0398 18.4258 30.3812 16.669 31.7052 16.046C32.4604 15.6885 32.7086 15.903 33.4327 16.0868C33.3086 15.8417 33.2982 15.0552 33.4741 14.8714C33.5982 14.7284 33.8465 14.8509 33.9706 14.7079C34.1361 14.5241 34.012 13.9521 34.343 13.7785C34.4361 13.7274 34.5809 13.7581 34.6533 13.7172C34.7051 13.6866 34.8395 13.2882 34.9637 13.1759C35.3154 12.8695 35.3567 13.1657 35.5947 13.2678C36.1015 13.4925 36.5257 13.1657 36.8049 13.2882C36.9808 13.3699 37.136 13.7683 37.3015 13.9419C37.4773 14.1258 37.8187 14.2688 37.8601 14.33L37.9014 14.3198Z" fill="white"/>
<path d="M52.404 53.6125L49.3111 57.7083L51.1731 62.6211H49.3628C48.9491 61.6815 48.6698 60.4762 48.2146 59.5672C48.1629 59.4753 48.1526 59.3527 48.0077 59.3731L45.5355 62.6211H40.8909L46.6526 55.0629H42.7839L43.0321 53.6023H52.4144L52.404 53.6125Z" fill="white"/>
<path d="M22.0437 58.1576L22.292 56.6971H26.078L26.3262 55.3999L22.623 55.6348L23.0057 54.0108L33.2362 53.4491L32.8535 55.0016L30.4432 55.1548L30.1122 56.6971H32.5742L32.2432 58.1474L29.4605 58.1781L26.6159 62.6211H22.5402L25.3332 58.1576H22.0437Z" fill="white"/>
<path d="M57.7417 53.6125L56.997 57.2691L62.8001 57.5142C62.8932 57.5142 62.9656 57.5551 62.9966 57.647C63.0484 57.79 62.7173 59.1995 62.6242 59.2199L56.5935 58.8931L55.766 62.6313H52.0627L54.1626 53.6125H57.7417Z" fill="white"/>
<path d="M33.1534 44.1851C33.3189 43.7357 33.5568 43.1944 33.9809 42.9288C35.0671 42.2343 35.8119 43.2455 36.1015 41.3661C36.536 38.5573 35.7395 38.5471 33.7844 37.1784C32.7396 36.4431 31.9224 36.0141 32.3052 34.5331C33.1224 33.8079 35.2636 34.0122 35.6878 32.9091C35.8636 32.4494 35.7188 31.4587 36.1429 31.1216C36.3498 30.9582 36.6498 31.0603 36.8773 30.9991C37.5704 30.8152 37.9842 30.3454 38.5221 31.1216C39.7841 32.9601 38.2221 35.1459 37.1566 36.6269C36.1636 37.9956 37.9738 37.8423 38.098 38.782C37.9738 39.5174 37.767 40.2324 37.6842 40.9678C37.6428 41.3355 37.7773 42.1832 37.5808 42.4488C37.5083 42.5407 36.9601 42.7961 36.7946 42.9288C36.3188 43.2965 36.1015 43.654 35.8429 44.1851H33.1741H33.1534Z" fill="white"/>
<path d="M26.3882 28.6907C26.564 29.2729 26.5434 29.8653 26.6985 30.4577C26.9675 31.4587 28.0433 32.7252 27.3399 33.6955C26.5847 33.9509 24.9193 32.4188 24.4538 31.857C23.2953 32.1226 22.2091 31.9898 21.0609 31.7651C21.3609 32.4392 21.2678 33.3278 21.4954 33.9815C21.6195 34.339 21.9608 34.7271 22.0436 35.1459C22.8091 35.0539 23.4194 33.9713 24.0918 34.911C24.2055 35.0744 24.4331 35.6055 24.4331 35.7996C24.4124 36.1264 23.9263 36.0753 23.678 36.1775C22.9849 36.4737 23.0987 36.8822 22.1057 36.8005C20.0885 36.6167 20.5851 33.767 19.7679 32.3677C19.4989 31.8979 18.6507 31.2442 19.5299 30.7846C20.192 30.4373 20.823 30.7846 21.4023 30.6007C21.454 30.5803 22.2091 30.0594 22.3229 29.9674C22.778 29.6406 23.2332 29.0073 23.4815 28.5171C23.5745 28.3332 23.5642 27.8532 23.7401 27.8021C24.1952 27.7408 24.5262 28.2311 24.8779 28.3741C25.3641 28.5681 25.933 28.4354 26.3882 28.7111V28.6907Z" fill="white"/>
<path d="M31.819 21.9496C33.3706 21.7861 33.2775 22.1436 33.5362 23.451C33.7534 24.5132 34.1775 26.699 34.0327 27.7102C33.9396 28.3639 32.6776 30.4066 32.0362 30.4475C31.4673 30.4781 29.9157 29.467 29.5329 29.0278C28.7881 28.18 27.9503 24.8299 27.8882 23.6655C27.8572 23.1854 27.8158 22.9097 28.302 22.685C28.8295 22.4398 31.1673 22.0006 31.819 21.9394V21.9496ZM31.2604 25.0954C31.488 25.0546 32.4293 24.9729 32.4914 24.7992C32.5328 24.6869 32.2638 23.6451 32.1811 23.4919C31.8087 22.7871 30.8984 22.9403 30.2777 23.1854C29.6571 23.4306 29.4191 23.737 29.4605 24.3907C29.5019 24.9422 30.1743 27.9962 30.3915 28.4251C30.7432 29.0993 31.8294 29.0073 32.4293 28.7214C33.6499 28.1596 32.9155 27.2097 32.8224 26.2292L31.6225 26.4641L31.9225 27.9655L31.6328 27.9247L30.7742 24.0638C30.7742 23.9004 30.9501 23.7881 31.0639 23.9515L31.2708 25.0954H31.2604Z" fill="white"/>
<path d="M40.4668 56.7788L40.1668 57.6572H38.3255L37.498 61.6508H39.4737L39.3082 62.5394H32.8948C32.8948 62.3454 32.9155 61.7223 33.112 61.661L35.0774 61.5691L35.936 57.6674H34.1257L34.2913 56.7788H40.4564H40.4668Z" fill="white"/>
<path d="M44.8321 37.3623C44.8941 38.2202 43.9942 38.6594 43.2908 38.8841C42.5873 39.1088 42.0184 39.1599 41.3978 38.6798C40.2392 37.7708 41.0771 36.2183 40.4564 35.4625C40.0737 34.9824 39.1634 35.391 39.0186 34.9211C38.9255 34.6352 39.1841 33.6648 39.5151 33.5321C40.8288 32.9805 42.608 33.6036 43.4252 34.7169C43.9424 35.4216 43.7873 36.4839 44.1183 37.2805L44.8217 37.3623H44.8321Z" fill="white"/>
<path d="M34.312 24.6154C35.3982 24.595 35.3154 24.1047 35.4913 23.2263C35.9981 23.5123 36.536 23.737 37.0119 24.0843C37.436 24.3907 38.9462 25.6674 38.9669 26.1168C38.998 26.6888 38.2739 26.9544 38.1291 27.2812C38.0256 27.5059 38.1187 27.8021 38.0773 28.0472C37.9946 28.5988 37.405 29.4465 36.7636 29.2729C36.4429 29.181 34.912 28.6192 34.7154 28.4558C34.6534 28.4047 34.5913 28.3536 34.5603 28.2924L34.312 24.6154Z" fill="white"/>
<path d="M31.9949 44.1851H29.6053C29.6984 43.5518 29.895 42.316 30.6501 42.173C30.8673 42.1321 31.0949 42.1934 31.2915 42.1525C31.7156 42.0708 33.0707 40.2425 33.2465 39.7727C33.6189 38.7309 32.6362 38.5879 32.0052 38.1283C31.6639 37.8832 30.8156 36.7392 30.6811 36.3511C30.4846 35.7587 30.6087 34.6351 31.3846 34.5432C31.8397 34.8088 31.788 35.3297 31.9638 35.728C32.1914 36.2694 32.5948 36.9435 33.0293 37.352C33.4844 37.781 34.2189 38.0466 34.6327 38.4449C35.6774 39.4459 33.7741 41.1516 33.6913 42.2343C32.6879 42.3875 31.8397 43.1024 31.9949 44.1749V44.1851Z" fill="white"/>
<path d="M15.9612 55.6348H14.813L14.8957 59.6182H15.2268C15.3612 60.0676 14.8957 59.9961 14.8957 60.0268V61.6508L13.6648 61.7325V60.4353L11.0373 61.1707L10.7891 60.2004L11.4511 60.1187C11.3063 59.414 11.3994 58.6888 11.3683 57.9636C11.3477 57.3916 11.358 56.5337 11.2959 56.0127C11.2339 55.5429 10.9959 55.8391 10.8822 55.7778L10.7994 55.4918C11.1925 55.4714 11.5959 55.5123 11.9993 55.4918C13.0958 55.4306 14.6268 55.2774 15.7026 55.3999C15.8578 55.4203 16.0129 55.4408 15.9819 55.645L15.9612 55.6348ZM13.5717 55.7165H12.5786C12.62 55.9413 12.4855 56.6154 12.6614 56.7379L13.5717 56.6971V55.7165ZM13.5717 57.0239C13.251 57.0648 12.8269 56.9116 12.589 57.1465V58.3211H13.5717V57.0239ZM12.6717 59.9451L13.6234 59.7919C13.6648 59.5672 13.7268 58.7092 13.582 58.6071L12.589 58.6581L12.6717 59.9553V59.9451Z" fill="white"/>
<path d="M3.70329 60.3537C3.65157 60.5477 3.74467 60.4864 3.80673 60.5375C3.98259 60.6907 4.25154 60.7827 4.36532 60.9971C3.38262 61.1503 2.43094 61.4976 1.44824 61.6508C1.36548 61.661 1.18963 61.7836 1.1586 61.5998C1.12757 61.4466 1.31376 61.4159 1.40686 61.3546C1.65512 61.181 2.90678 60.5886 2.96885 60.4558C2.99988 60.272 2.88609 60.3435 2.76196 60.3332C2.50335 60.3128 2.2344 60.3435 1.9758 60.3332L1.89304 57.4121L8.30649 57.3304L8.14098 60.3332H6.49624C6.51693 60.466 6.84795 60.4558 6.96174 60.4762C7.59274 60.5886 8.23408 60.6907 8.87543 60.7316L8.09961 61.6815C7.96513 61.6917 5.86524 60.5988 5.80318 60.4864C5.78249 60.4456 5.81352 60.3639 5.84455 60.323H3.70329V60.3537ZM6.91002 58.2394C6.91002 58.0249 6.99277 57.6981 6.70313 57.6674L3.20677 57.7491V58.3211L6.91002 58.2394ZM3.20677 59.128H6.78588L6.91002 58.556L3.20677 58.6377V59.128ZM6.82726 60.0268C7.00311 59.0361 6.61003 59.4446 5.96869 59.4651C5.04805 59.4855 4.12741 59.4446 3.20677 59.4651V60.037H6.82726V60.0268Z" fill="white"/>
<path d="M24.3504 12.992L23.4918 13.4006C23.4297 13.3904 23.1401 12.8592 23.078 12.7571C21.2471 9.61123 19.9851 5.80147 18.2576 2.57389C18.0714 1.9202 17.9266 1.24609 17.9473 0.571976C18.3507 1.00096 18.7645 1.60357 19.0645 2.11427C21.0092 5.46441 22.3643 9.38653 24.3194 12.7571L24.3607 12.992H24.3504Z" fill="white"/>
<path d="M22.954 28.5886C22.9333 29.2116 22.6126 29.1095 22.3023 29.3648C22.0437 29.5691 21.8575 29.8449 21.5782 30.0287L16.075 30.2943C15.7026 30.2636 15.2268 30.0798 14.8854 29.9266C14.7303 29.8551 14.5855 29.6814 14.5027 29.6508C14.151 29.5589 13.9027 30.1104 13.1993 29.4772C12.3201 28.6907 12.4442 27.9553 13.7579 28.0268C14.5648 28.0677 14.9578 28.752 15.6613 28.9971C16.9957 29.467 17.8129 28.8439 18.9921 28.7826C19.4369 28.7622 19.9127 28.9052 20.3679 28.9052C20.7403 28.9052 22.8609 28.4864 22.954 28.5784V28.5886Z" fill="white"/>
<path d="M8.72023 55.1548L8.55472 56.9422L1.47924 57.0239L1.39648 55.2365L8.72023 55.1548ZM3.37224 55.4817L2.66883 55.5531L2.71021 56.6971H3.45499L3.37224 55.4817ZM5.348 55.4714H4.60321C4.68596 55.737 4.37564 56.4928 4.60321 56.6562L5.31696 56.6154L5.35834 55.4714H5.348ZM7.40651 55.4714H6.57897L6.49621 56.6052H7.30306C7.46857 56.2375 7.37547 55.8391 7.39616 55.4714H7.40651Z" fill="white"/>
<path d="M18.299 56.1251C18.3818 56.1455 18.63 56.4417 18.5887 56.5643L17.6784 59.9757L18.8266 60.7928L17.968 61.7223L17.1301 60.8439L15.9095 61.7223L15.6302 61.4261L16.4267 59.9859L15.4543 58.8522L15.7233 58.6479C15.8578 58.7603 16.5612 59.3221 16.6853 59.2097L17.1818 56.452H15.4543V56.1251H18.2887H18.299Z" fill="white"/>
<path d="M9.96158 37.3623C9.96158 37.3623 10.4685 37.1376 10.6546 37.3623C10.7788 37.5053 10.7581 37.8219 10.8098 37.9138C10.8098 37.9343 10.9133 37.9445 10.9443 37.9955C11.0891 38.2713 11.8856 39.6706 11.8546 39.834L9.13404 41.264L8.14099 39.3642L8.63752 39.1088L9.29955 40.3754L9.86848 40.1302L9.3823 39.0374L9.83745 38.7514L10.3754 39.691C10.5305 39.783 11.0788 39.5685 11.0064 39.3131C10.9339 39.0578 10.396 38.4347 10.3754 38.1385L10.7064 37.8525L7.63412 38.016L7.34448 37.2601L9.87883 35.2582L10.0961 35.9528L9.63057 36.443L9.97193 37.3725L9.96158 37.3623ZM9.3823 37.3623C9.16507 36.535 8.92716 36.8312 8.42029 37.2601C8.35822 37.3112 8.26512 37.2601 8.31684 37.444L9.3823 37.3623Z" fill="white"/>
<path d="M39.8978 46.0543L40.8495 46.136L41.8736 48.2502V46.0543H42.5356V49.5474H41.7288L40.7254 47.2697L40.5599 47.3106C40.5599 47.3821 40.6426 47.4536 40.6426 47.474V49.5474H39.8978V46.0543Z" fill="white"/>
<path d="M32.8017 45.993C35.0257 45.6253 35.1498 49.384 33.2672 49.6189C31.1156 49.8845 31.0535 46.279 32.8017 45.993ZM32.8844 46.6365C32.2431 46.8305 32.15 49.098 33.1948 48.9754C33.9602 48.8733 33.9809 46.3096 32.8844 46.6365Z" fill="white"/>
<path d="M16.7785 46.0543V47.4331C17.1198 47.3821 17.5853 47.5557 17.8439 47.3106V46.0543H18.5887V49.5474H17.8439V48.2094C17.5853 47.9643 17.1198 48.1379 16.7785 48.0868V49.5474H15.9509V46.0543H16.7785Z" fill="white"/>
<path d="M10.7891 18.7526C11.058 18.9058 11.1925 18.1296 11.689 18.6403C11.689 19.0591 11.0891 19.3246 11.0374 19.4574C10.9753 19.6412 11.0477 19.9272 11.0063 20.1621C10.7477 21.4797 8.803 21.4899 9.05126 19.9783C7.22033 20.5094 8.00649 17.5678 9.29952 18.3952C9.37193 18.4462 9.45469 18.5279 9.50641 18.5994C9.79605 19.0795 9.3409 19.3246 10.2098 18.9978L9.8788 18.3952L10.1684 17.9457C10.396 18.007 10.7477 18.722 10.7994 18.7424L10.7891 18.7526ZM9.12367 19.3246C9.22711 18.9263 8.93748 18.6505 8.57543 18.865L8.48233 19.3246H9.12367ZM10.5305 19.58L9.54779 19.8353C9.46503 20.3766 9.90984 20.5298 10.3443 20.2949L10.5305 19.5902V19.58Z" fill="white"/>
<path d="M52.404 23.4714C52.4557 24.1047 51.7213 24.4622 51.2144 24.1251C50.7075 23.7881 50.5627 22.5828 50.3558 22.0109L53.3246 21.2346C53.5729 21.8883 54.3694 23.7064 53.1074 23.7779C52.7867 23.7983 52.6833 23.5123 52.4247 23.4817L52.404 23.4714ZM53.0557 22.0109L52.3212 22.1743C52.4661 22.6645 52.6212 23.5123 53.2109 22.8484L53.0557 22.0109ZM51.8247 22.3377L51.0903 22.5011C51.1627 23.0016 51.3592 23.8494 51.9799 23.3387L51.8247 22.3377Z" fill="white"/>
<path d="M22.8815 14.7692L22.7263 14.33L25.5089 12.8286C25.6951 13.2065 25.4262 13.4925 25.4262 13.7581C25.4262 13.993 25.6434 14.2075 25.6641 14.422C25.6744 14.5956 25.5813 14.7692 25.5917 14.9633C25.6227 15.4944 25.9434 15.4229 25.4262 15.8519C25.271 15.9847 25.0434 16.0562 24.8986 16.2196C24.671 15.6783 24.0504 15.6068 23.709 15.2799C23.409 14.9939 23.4918 14.6467 22.8918 14.7488L22.8815 14.7692Z" fill="white"/>
<path d="M48.5353 18.3543L48.2043 17.67C48.4008 17.1082 49.2283 16.7099 48.5767 16.1583L47.5112 16.812L47.2216 16.2911L49.7249 14.5343C50.1076 15.1676 51.3075 16.3013 50.511 17.0163C50.0559 17.4248 49.4973 17.0878 49.3525 17.1695L48.5353 18.3543ZM49.0318 15.8417C49.2594 16.3319 49.7456 16.9958 50.149 16.2502C50.18 16.097 49.7662 15.4331 49.6525 15.4331L49.0318 15.8417Z" fill="white"/>
<path d="M9.36155 33.4504C8.93744 33.7568 8.07886 33.9508 8.39953 34.5943L9.62016 34.3594L9.78567 35.0948L6.74445 35.7383C6.64101 35.0029 5.91691 33.4912 6.98237 33.1746C7.6444 32.9805 7.85129 33.5116 8.07886 33.4504L9.20639 32.6435L9.36155 33.4401V33.4504ZM7.07547 34.9212L7.89266 34.7067C7.85129 34.3287 7.72716 33.7261 7.22029 33.8793C6.79617 34.0836 7.07547 34.5739 7.08581 34.9212H7.07547Z" fill="white"/>
<path d="M27.6813 6.7105C27.6813 6.7105 27.5571 6.74114 27.5468 6.79221C27.5158 7.09863 28.1571 7.80338 28.2916 8.12001C28.0847 8.07915 27.8571 8.20172 27.6709 8.20172C27.1123 8.20172 27.133 6.65943 26.3158 7.19055L26.4813 8.36514L25.7366 8.44685L25.3331 5.44398C26.1296 5.40313 27.7537 4.7188 27.8778 5.96489C27.9192 6.35301 27.8571 6.4143 27.6709 6.70028L27.6813 6.7105ZM26.0779 5.85253C26.1917 6.0466 26.0779 6.58793 26.2951 6.65943C27.702 6.60836 27.3813 5.45419 26.0779 5.85253Z" fill="white"/>
<path d="M18.4853 8.05873C19.6128 7.87488 20.4197 9.05969 20.1921 10.0709C20.0369 10.796 19.1783 11.0616 18.6198 11.4293L17.0267 8.80434C17.0267 8.70221 18.268 8.08937 18.4749 8.04852L18.4853 8.05873ZM17.937 8.85541L18.837 10.5203C20.0679 10.5203 19.5094 8.74306 18.5991 8.65114C18.3611 8.63071 18.1646 8.83499 17.9267 8.85541H17.937Z" fill="white"/>
<path d="M31.4363 8.02809L31.7673 5.04564C33.2362 5.04564 34.2913 5.33163 34.0534 7.01692C33.8775 8.29365 32.4397 8.31408 31.4363 8.02809ZM33.0396 7.4459C33.4224 7.10884 33.5258 6.13852 33.0603 5.81168C32.8638 5.66869 32.388 5.49505 32.3259 5.81168C32.2845 6.0466 32.119 7.36419 32.1707 7.50718C32.1914 7.56846 32.2224 7.60932 32.2949 7.62975C32.4914 7.69103 32.8845 7.58889 33.0396 7.45611V7.4459Z" fill="white"/>
<path d="M12.258 14.136C12.3097 14.2381 12.0407 14.759 12.0097 14.7794C11.989 14.7999 11.7201 14.5956 11.5132 14.6569C10.2615 14.9939 12.1131 16.8324 12.8062 16.1481C13.0545 15.903 12.9407 15.6374 12.8269 15.3616C12.5786 15.3003 12.4855 15.7395 12.3717 15.7702L11.9269 15.4842L12.7131 14.473L13.9855 15.4842C13.8303 15.6987 13.7268 15.6885 13.4889 15.6068C13.4993 17.3942 11.5132 17.292 10.7063 16.0357C9.98222 14.9122 10.996 13.6763 12.258 14.1462V14.136Z" fill="white"/>
<path d="M21.3919 46.0543V46.7079H20.2333V47.4331H21.3919V48.0868H20.2333V48.8937H21.4747V49.5474H19.4989V46.0543H21.3919Z" fill="white"/>
<path d="M12.2476 40.2937L12.5889 40.8554L11.5235 41.55L12.02 42.316L13.1268 41.6623C13.251 41.6419 13.5199 42.0606 13.4889 42.1832L10.9442 43.94L10.6235 43.4089L11.5959 42.6837L11.0993 41.9177L9.99251 42.5611L9.62012 42.03L12.0096 40.3243L12.2476 40.2937Z" fill="white"/>
<path d="M53.304 37.0354L53.0557 37.6789L51.9075 37.3112L51.5041 38.1283L52.6523 38.5777L52.3523 39.2212L49.5283 38.0364C49.7352 37.0559 50.3662 37.8525 50.9972 37.924L51.3282 37.0763L50.211 36.5452L50.3869 35.9732L53.2936 37.0354H53.304Z" fill="white"/>
<path d="M13.551 11.7153C14.7613 11.5519 16.1992 13.2984 15.1337 14.3402C14.0682 15.3821 12.3097 13.9725 12.5063 12.7162C12.5787 12.277 13.1062 11.7664 13.551 11.7153ZM13.4683 12.3588C12.5373 12.6243 13.9027 14.4424 14.6889 13.9725C15.3716 13.564 14.0889 12.1851 13.4683 12.3588Z" fill="white"/>
<path d="M49.4146 38.925C50.4801 38.7105 51.9386 39.7115 51.5559 40.8758C50.9663 42.6428 47.894 41.3252 48.5974 39.6604C48.7319 39.3438 49.0629 38.9965 49.4146 38.925ZM49.4974 39.5685C48.2044 39.8238 50.2422 41.5704 50.8732 40.9371C51.4628 40.3345 50.0456 39.4663 49.4974 39.5685Z" fill="white"/>
<path d="M15.9406 9.68273C17.1715 9.53974 18.568 11.6642 17.1922 12.5426C15.8164 13.421 13.8717 10.8778 15.3613 9.91765C15.4854 9.83594 15.8061 9.69295 15.9406 9.67252V9.68273ZM15.8578 10.3262C14.8854 10.5203 16.075 12.4098 16.8612 12.0523C17.5853 11.7357 16.5302 10.1832 15.8578 10.3262Z" fill="white"/>
<path d="M24.1022 46.0543L24.0195 46.7795C23.7402 46.5854 22.8299 46.473 22.8712 46.9837C22.9126 47.5353 24.4022 47.4025 24.2677 48.6894C24.1643 49.6802 22.7781 49.7721 22.0437 49.4555L22.1265 48.812C22.1885 48.7507 23.3574 49.2716 23.4505 48.6894C23.554 48.0255 22.0127 48.0255 22.054 46.9939C22.0954 46.0236 23.3367 45.8091 24.1022 46.0543Z" fill="white"/>
<path d="M47.8319 12.3486L49.2698 14.0032C48.7629 14.7897 48.3595 13.6151 47.9043 13.3291C47.8319 13.3189 47.5112 13.5334 47.4595 13.6049C47.3457 13.7376 47.3975 13.6559 47.4595 13.7683C47.563 13.9419 48.1319 14.473 48.1112 14.5752L47.7492 14.9531C47.263 14.616 47.0975 13.6866 46.5078 14.473V14.6365L47.3664 15.5863L46.932 16.0153L45.4838 14.4322L47.8216 12.3588L47.8319 12.3486Z" fill="white"/>
<path d="M43.5184 9.58059L43.1874 10.1117L44.1701 10.7245L43.9218 11.2046L42.8977 10.6326C42.7633 10.6122 42.546 11.0514 42.546 11.0922C42.515 11.3272 43.5184 11.7664 43.6839 11.9808C43.6322 12.1136 43.477 12.4303 43.3115 12.4303C43.2081 12.4303 41.8633 11.4599 41.6461 11.3067C41.584 11.2659 41.5013 11.3272 41.5426 11.1637L43.2701 8.68177C43.6218 9.01883 44.7494 9.52952 45.008 9.85636C45.1321 10.0096 44.9769 10.2853 44.8425 10.3568C44.6769 10.4386 43.6322 9.50909 43.5287 9.58059H43.5184Z" fill="white"/>
<path d="M37.1773 5.93425L37.0118 6.49601L35.5429 6.17938L35.4602 6.81264L36.4843 7.05777L36.4429 7.63996L35.2947 7.31312L35.1292 8.0383L36.4429 8.32429L36.5257 8.48771L36.4429 8.93712L34.3016 8.44685L34.9637 5.44398L37.1773 5.93425Z" fill="white"/>
<path d="M52.311 27.0463C52.311 27.2301 52.4455 27.4651 52.4041 27.6387C52.3834 27.7204 52.1972 27.7306 52.1145 27.8634C51.8041 28.3639 52.3007 29.038 52.6006 28.6703C52.9213 28.2822 52.611 27.2199 53.5006 27.128C54.866 26.985 55.0833 28.9563 53.9557 29.324C53.6764 28.752 53.8937 28.8439 54.0592 28.4864C54.3074 27.9349 53.7695 27.4651 53.5213 28.037C53.273 28.609 53.4282 29.5998 52.3524 29.4772C51.1938 29.3444 51.1214 27.1178 52.3007 27.0463H52.311Z" fill="white"/>
<path d="M54.2039 24.3703L54.535 26.4743L53.966 26.556L53.7178 25.0954L53.0661 25.3099L53.2212 26.3926L52.6833 26.4028L52.5592 25.3406L51.8248 25.4223L52.073 26.8829L51.411 26.9646L51.1627 24.7686L54.2039 24.3703Z" fill="white"/>
<path d="M51.9076 33.3789V33.9815C51.3593 33.9815 51.0386 35.1459 51.6179 35.0948C52.1145 35.0437 52.0627 33.91 52.9316 33.8691C54.4109 33.7874 54.1419 35.9834 52.8903 36.1468C52.911 35.963 52.8489 35.7178 52.8903 35.5544C52.911 35.4829 53.6351 35.1459 53.3454 34.6862C52.6834 34.2062 52.6627 35.6055 52.0731 35.7893C50.3145 36.3409 50.3249 33.4095 51.9076 33.3891V33.3789Z" fill="white"/>
<path d="M5.92725 27.2097L6.01 26.3926C6.641 26.4334 7.66508 26.7501 8.26505 26.6377C8.70985 26.556 8.80295 25.7593 8.32712 25.6061C7.9961 25.4938 6.25826 25.4223 6.17551 25.3406V24.7788C7.37544 25.0239 9.41327 24.5439 9.19604 26.3415C8.97881 28.1392 7.12718 27.1382 5.92725 27.2199V27.2097Z" fill="white"/>
<path d="M15.3819 46.0543L15.2164 46.6977C13.1786 46.0951 13.22 49.4861 15.2164 48.8937L15.2992 49.5372C11.9786 50.3849 12.1235 45.1861 15.3819 46.0441V46.0543Z" fill="white"/>
<path d="M45.6492 46.0645L45.5768 46.7079C43.5597 46.0645 43.5597 49.5372 45.5768 48.9039L45.6596 49.5576C43.9631 49.9049 43.0839 49.098 43.2701 47.4025C43.3942 46.279 44.6252 45.7376 45.6492 46.0747V46.0645Z" fill="white"/>
<path d="M31.1776 8.0383H30.3604L30.1949 7.42547C29.5535 7.35397 29.0053 7.20077 29.0363 8.02809L28.3846 8.12001C28.5191 7.7421 29.1812 5.14778 29.3053 5.04564C29.388 4.98436 30.0501 4.88222 30.1535 5.02522L31.1776 8.02809V8.0383ZM29.3673 6.90456C29.5949 6.89435 29.8742 6.98627 30.019 6.782L29.688 5.84232C29.5742 5.8219 29.5949 5.92403 29.5639 6.00575C29.5122 6.13853 29.3053 6.84328 29.357 6.89435L29.3673 6.90456Z" fill="white"/>
<path d="M31.0846 46.0645L31.0122 46.708C28.9847 46.0543 28.964 49.5372 31.0122 48.9039L31.0949 49.5576C27.7951 50.436 27.8779 45.2576 31.0949 46.0747L31.0846 46.0645Z" fill="white"/>
<path d="M50.2524 42.7348C50.2938 42.8165 50.2524 42.888 50.2214 42.9697C50.1593 43.1025 49.4352 43.9911 49.3111 44.0932C48.4628 44.7673 47.3974 43.94 47.8111 42.939C47.8836 42.7552 48.318 42.316 48.2973 42.2036C47.7387 41.7134 47.1388 41.6929 47.8422 40.9371L50.2627 42.7348H50.2524ZM49.4352 42.9697L48.7008 42.5611C47.8525 43.6336 48.9697 44.1851 49.4352 42.9697Z" fill="white"/>
<path d="M27.1433 46.0543V46.7079H26.3261V49.5474H25.4986V46.7079H24.6814V46.0543H27.1433Z" fill="white"/>
<path d="M45.0804 12.6754L46.9424 11.5417L47.3768 11.8991L44.7701 13.5538L44.108 13.1044L44.1287 12.992L45.5252 10.2343L45.97 10.745L45.0804 12.6754Z" fill="white"/>
<path d="M6.41342 27.7817V29.2423H7.1582V28.1085H7.73748V29.2423H8.96845V29.9674H5.84448V27.7817H6.41342Z" fill="white"/>
<path d="M50.9972 18.7628H52.2696L52.5592 19.2531H50.4593C50.3662 19.2531 49.5697 19.7638 49.3835 19.8149L49.0111 19.1714C49.3318 19.0386 49.9111 18.8446 50.1593 18.6403C50.5938 18.2828 50.9145 17.384 51.3593 16.9856L51.6903 17.721L50.9869 18.7731L50.9972 18.7628Z" fill="white"/>
<path d="M6.49617 31.2748L9.05121 31.0297L9.13396 31.7549L6.67202 32.0102L6.66168 32.8171H6.0824L5.84448 30.6211L6.42376 30.57L6.49617 31.2748Z" fill="white"/>
<path d="M24.7641 5.60741L24.8469 6.17939L24.2366 6.33259C24.009 6.4858 24.7952 8.34472 24.7745 8.72263L24.1124 8.93712L23.4504 6.58794L22.7677 6.74115L22.5608 6.1896L24.7745 5.61762L24.7641 5.60741Z" fill="white"/>
<path d="M54.6177 29.896L54.4522 32.0817H53.8833L53.9454 31.4587L53.8212 31.285L51.411 31.1114L51.4938 30.376L53.9143 30.6109C54.1419 30.5496 54.0178 29.9981 54.0488 29.804L54.6177 29.8857V29.896Z" fill="white"/>
<path d="M9.86844 22.7462L9.45467 24.6052L6.41345 23.9617L6.57896 23.2263L9.0409 23.7983L9.2995 22.6645L9.86844 22.7462Z" fill="white"/>
<path d="M39.0807 46.0543H38.2532V49.5474H39.0807V46.0543Z" fill="white"/>
<path d="M40.4668 7.1497L40.2185 7.79317L40.8805 7.87488L40.8392 8.28343L40.1358 8.20172C40.053 8.29365 40.6943 9.08012 39.8047 8.93712L39.722 8.28343C39.3289 8.52857 39.1013 8.86562 38.9048 8.25279L39.4737 7.92595L39.0186 7.47654L39.3392 7.24162L39.8047 7.63996L39.9702 7.06799L40.4668 7.1497Z" fill="white"/>
<path d="M34.8602 22.7565L34.8395 23.9617L34.1464 24.1149L33.8154 22.5011C34.2292 22.4296 34.5188 22.6033 34.8705 22.7565H34.8602Z" fill="white"/>
<path d="M37.5911 48.7303C37.3428 49.2818 37.2394 50.3747 36.4429 50.1909L36.8049 48.812L37.5911 48.7303Z" fill="white"/>
<path d="M35.5119 48.669C36.3808 48.4852 36.2153 49.9764 35.3877 49.5678C35.0257 49.3942 35.0774 48.761 35.5119 48.669Z" fill="white"/>
</svg>
